M48
; DRILL file {KiCad (5.1.0)-1} date 2021/12/30 1:46:16
; FORMAT={3:3/ absolute / metric / keep zeros}
; #@! TF.CreationDate,2021-12-30T01:46:16+08:00
; #@! TF.GenerationSoftware,Kicad,Pcbnew,(5.1.0)-1
FMAT,2
METRIC
T1C0.400
T2C0.800
T3C1.000
%
G90
G05
T1
X011700Y-016900
X012400Y-019800
X014550Y-015550
X016305Y-018905
X016650Y-014250
X017800Y-014800
X018300Y-013600
X019000Y-017600
X021800Y-016700
X025700Y-020000
X025710Y-007790
X025710Y-016290
T2
X018300Y-002100
X020800Y-002100
T3
X033400Y-004100
X008500Y-004100
X003400Y-004100
X026400Y-004100
X026400Y-026100
X014400Y-002100
X008500Y-026100
X020340Y-026580
X011780Y-005400
X019400Y-005400
X023000Y-005380
X023000Y-013000
T0
M30
