M48
; DRILL file {KiCad (5.1.0)-1} date 2022/1/11 9:00:12
; FORMAT={3:3/ absolute / metric / keep zeros}
; #@! TF.CreationDate,2022-01-11T09:00:12+08:00
; #@! TF.GenerationSoftware,Kicad,Pcbnew,(5.1.0)-1
FMAT,2
METRIC
T1C0.400
T2C1.000
T3C1.500
%
G90
G05
T1
X001210Y001320
X001430Y017900
X007300Y008930
X009675Y005900
X010615Y019185
X012970Y001380
X020440Y025410
X020465Y021435
X020890Y005310
X020890Y003960
X021465Y025430
X021640Y007335
X021750Y012000
X022715Y007185
X022950Y014100
X023410Y025430
X024565Y012860
X024570Y025430
X025840Y012860
X027110Y012930
X027930Y015600
X031680Y009790
X032830Y011000
X032900Y012850
X034150Y012800
X034500Y009500
X034950Y010950
X035450Y008150
X037200Y009400
X040950Y008200
X041150Y013250
X043235Y017045
X043565Y009385
X043690Y008310
X044110Y019950
X047030Y020122
X053020Y013120
X053040Y011585
X053290Y019435
X053440Y020410
X055515Y007685
X056540Y012860
X057640Y011185
X057710Y005590
X058015Y020410
X059540Y024760
X060490Y003785
X060490Y001710
X062590Y017260
X063890Y017260
X064290Y013210
X064940Y010760
X067960Y016300
X068850Y001650
X070800Y026340
X075035Y012185
X079680Y001290
X079860Y017900
T2
X065890Y020460
X016500Y001900
X046720Y001840
X016465Y025670
X029840Y025670
X013765Y025670
X038370Y001840
X027290Y025670
X010940Y025670
X063290Y020460
X033340Y025670
X029670Y001840
X035870Y001840
X071670Y016400
X071670Y001900
X074170Y016400
X076670Y016400
X076670Y001900
X053634Y025670
X052830Y001840
X062480Y001840
X068490Y020460
X004640Y016400
X004640Y001900
X007140Y016400
X009640Y016400
X009640Y001900
X044235Y001840
X060690Y020460
X041750Y001840
X042765Y025670
X027170Y001840
T3
G00X068570Y009550
M15
G01X068570Y008250
M16
G05
G00X079770Y009550
M15
G01X079770Y008250
M16
G05
G00X001540Y009550
M15
G01X001540Y008250
M16
G05
G00X012740Y009550
M15
G01X012740Y008250
M16
G05
T0
M30
